<svg xmlns="http://www.w3.org/2000/svg" xmlns:xlink="http://www.w3.org/1999/xlink" viewBox="0 0 58 46"><defs><style>.cls-1{fill:url(#linear-gradient);}.cls-2{fill:url(#linear-gradient-2);}.cls-3{fill:url(#linear-gradient-3);}</style><linearGradient id="linear-gradient" y1="25" x2="58" y2="25" gradientUnits="userSpaceOnUse"><stop offset="0" stop-color="#cd476b"/><stop offset="1" stop-color="#f7ab51"/></linearGradient><linearGradient id="linear-gradient-2" x1="13" x2="47" xlink:href="#linear-gradient"/><linearGradient id="linear-gradient-3" x1="19" y1="1" x2="40" y2="1" xlink:href="#linear-gradient"/></defs><title>Asset 1</title><g id="Layer_2" data-name="Layer 2"><g id="Capa_1" data-name="Capa 1"><path class="cls-1" d="M54.63,4H3.37A3.37,3.37,0,0,0,0,7.37V42.63A3.37,3.37,0,0,0,3.37,46H54.63A3.37,3.37,0,0,0,58,42.63V7.37A3.37,3.37,0,0,0,54.63,4ZM56,42.63A1.37,1.37,0,0,1,54.63,44H3.37A1.37,1.37,0,0,1,2,42.63V7.37A1.37,1.37,0,0,1,3.37,6H54.63A1.37,1.37,0,0,1,56,7.37Z"/><path class="cls-2" d="M30,8A17,17,0,1,0,47,25,17,17,0,0,0,30,8Zm0,32A15,15,0,1,1,45,25,15,15,0,0,1,30,40Z"/><path class="cls-3" d="M20,2H39a1,1,0,0,0,0-2H20a1,1,0,0,0,0,2Z"/></g></g></svg>